<?xml version="1.0" encoding="UTF-8"?>
<svg width="412px" height="412px" viewBox="0 0 412 412" version="1.1" xmlns="http://www.w3.org/2000/svg" xmlns:xlink="http://www.w3.org/1999/xlink">
    <title>Artwork-icon</title>
    <defs>
        <path d="M167.938719,50 L344.061281,50 C385.071143,50 399.94231,54.2699781 414.934902,62.2881044 C429.927495,70.3062306 441.693769,82.072505 449.711896,97.0650976 C457.730022,112.05769 462,126.928857 462,167.938719 L462,344.061281 C462,385.071143 457.730022,399.94231 449.711896,414.934902 C441.693769,429.927495 429.927495,441.693769 414.934902,449.711896 C399.94231,457.730022 385.071143,462 344.061281,462 L167.938719,462 C126.928857,462 112.05769,457.730022 97.0650976,449.711896 C82.072505,441.693769 70.3062306,429.927495 62.2881044,414.934902 C54.2699781,399.94231 50,385.071143 50,344.061281 L50,167.938719 C50,126.928857 54.2699781,112.05769 62.2881044,97.0650976 C70.3062306,82.072505 82.072505,70.3062306 97.0650976,62.2881044 C112.05769,54.2699781 126.928857,50 167.938719,50 Z" id="path-1"></path>
    </defs>
    <g id="Template---Icons---App" stroke="none" stroke-width="1" fill="none" fill-rule="evenodd">
        <g id="Artwork" transform="translate(-50.000000, -50.000000)">
            <mask id="mask-2" fill="white">
                <use xlink:href="#path-1"></use>
            </mask>
            <use id="Mask" fill="#FFFFFF" xlink:href="#path-1"></use>
            <g id="编组" mask="url(#mask-2)">
                <g transform="translate(50.000000, 50.000000)" id="Icon-Center-Image-Artwork">
                    <rect id="矩形" fill="#D0E7FF" x="0" y="0" width="412" height="412"></rect>
                    <rect id="矩形" fill="#FFFFFF" x="0" y="0" width="412" height="412"></rect>
                    <g id="编组-2" transform="translate(60.056682, 55.768000)" fill="#000000">
                        <path d="M235.19383,180.46872 L235.193318,272.5 L198.928324,272.5 C198.928324,272.5 198.706313,272.129652 198.262291,271.388955 L197.887647,270.763993 C196.846969,269.027986 195.025783,265.989973 192.424089,261.649955 L191.341784,259.844508 C185.611158,250.284959 176.633984,235.30968 164.410262,214.91867 C167.194754,213.990285 169.990477,213.017505 172.7919,211.997871 C196.476359,203.377432 217.695938,192.45335 235.19383,180.46872 Z M56.1898782,226.267845 C67.2155442,228.558891 79.9752751,229.400252 93.9002877,228.745309 L93.9028399,272.5 L56.1933183,272.5 Z M93.5124588,27.5 C93.5124588,27.5 93.7898474,27.9627394 94.3446246,28.8882182 L94.7555706,29.5737581 C101.0088,40.0053897 130.853756,89.7927225 184.290441,178.935756 L185.144536,180.360872 C178.479128,183.328039 171.526696,186.141004 164.333662,188.759054 C159.987188,190.341041 155.662266,191.812039 151.372515,193.172346 C136.179669,167.825788 117.34121,136.400399 94.860559,98.8992857 L94.860559,98.8992857 L93.9028399,98.8992857 L93.9009559,205.111887 C79.4839556,206.345117 66.6328771,205.868812 56.1905128,203.70137 L56.1933183,27.5 Z M235.193318,27.5 L235.195285,151.315411 C224.582256,159.46901 211.700772,167.435764 197.127118,174.710278 L197.124939,27.5 L235.193318,27.5 Z" id="N-2" fill-rule="nonzero"></path>
                        <path d="M281.861042,102.330261 C293.714047,134.896124 244.422746,182.733842 171.765839,209.178793 C99.1089326,235.623744 30.6001132,230.661764 18.7471082,198.095901 C11.8525118,179.153153 25.6458336,155.043238 52.6919504,132.982019 L52.6928532,136.119154 C31.4868628,153.907536 20.8115125,172.282284 25.987109,186.502118 C35.7622963,213.359225 98.3795646,215.224619 165.846692,190.668593 C233.31382,166.112566 280.082378,124.433987 270.30719,97.5768809 C266.576678,87.3273826 255.150137,80.7177285 238.695046,77.8273837 L238.695777,75.8368309 C260.896141,79.2596073 276.71602,88.1944287 281.861042,102.330261 Z M193.693207,75.5903623 L193.693718,77.7097874 C175.613956,79.9563458 155.603852,84.6319991 135.037741,91.7776893 L133.678494,89.5311667 C154.542229,82.3167273 174.965178,77.7000708 193.693207,75.5903623 Z M84.4433183,45.732 L84.4433183,64.232 L65.9433183,64.232 L65.9433183,45.732 L84.4433183,45.732 Z" id="矩形-2"></path>
                    </g>
                </g>
            </g>
        </g>
    </g>
</svg>