<?xml version="1.0" encoding="UTF-8"?>
<svg width="600px" height="600px" viewBox="0 0 600 600" version="1.1" xmlns="http://www.w3.org/2000/svg" xmlns:xlink="http://www.w3.org/1999/xlink">
    <title>icon</title>
    <g id="Symbols" stroke="none" stroke-width="1" fill="none" fill-rule="evenodd">
        <g id="Artwork" transform="translate(-121.000000, -112.000000)" fill="#000000">
            <g id="编组-2" transform="translate(120.113363, 111.536000)">
                <path d="M470.387661,360.93744 L470.386637,545 L397.856649,545 C397.856649,545 397.412627,544.259304 396.524582,542.777911 L395.775294,541.527986 C389.17153,530.511912 366.853355,493.281834 328.820769,429.837749 C334.389366,427.980619 339.980882,426.035036 345.583799,423.995741 C392.952719,406.754865 435.391876,384.906699 470.387661,360.93744 Z M112.381329,452.536017 C134.432829,457.117971 159.952433,458.800554 187.802574,457.490524 L187.80568,545 L112.386637,545 Z M187.024918,55 C187.024918,55 247.543572,155.957171 368.580882,357.871513 L370.289072,360.721743 C356.958256,366.656077 343.053391,372.282007 328.667324,377.518107 C319.974377,380.682081 311.324532,383.624078 302.74503,386.344691 C272.358642,335.650414 234.682004,272.800105 189.721118,197.798571 L189.721118,197.798571 L187.80568,197.798571 L187.802574,410.223717 C158.96859,412.690223 133.266423,411.737676 112.381646,407.402868 L112.386637,55 Z M470.386637,55 L470.390819,302.630631 C449.164228,318.938267 423.400482,334.872198 394.25224,349.421551 L394.249877,55 L470.386637,55 Z" id="N-2" fill-rule="nonzero"></path>
                <path d="M563.722084,204.660522 C587.428094,269.792249 488.845491,365.467683 343.531678,418.357586 C198.217865,471.247488 61.2002263,461.323529 37.4942164,396.191802 C23.7050235,358.306306 51.2916672,310.086475 105.383901,265.964038 L105.385761,272.238263 C62.9737438,307.81504 41.6230206,344.564555 51.9742179,373.004236 C71.5245926,426.718449 196.759129,430.449238 331.693384,381.337185 C466.627639,332.225133 560.164755,248.867975 540.614381,195.153762 C533.153368,174.654799 510.300349,161.4355 477.390255,155.654796 L477.39196,151.673724 C521.792475,158.519324 553.432071,176.388944 563.722084,204.660522 Z M387.387418,151.180612 L387.388299,155.419467 C351.228549,159.912543 311.208031,169.263884 270.075482,183.555379 L267.35621,179.062603 C309.084322,164.633441 349.930852,155.400003 387.387418,151.180612 Z M168.886637,91.464 L168.886637,128.464 L131.886637,128.464 L131.886637,91.464 L168.886637,91.464 Z" id="矩形-2"></path>
            </g>
        </g>
    </g>
</svg>